# xmcd
#
# Track frame offsets:
#	150
#	19934
#	30253
#	59501
#	81348
#	107389
#	119894
#	137493
#	156590
#	176730
#	205072
#	222643
#	236642
#	256633
#	267596
#
# Disc length: 3750 seconds
#
# Revision: 1
# Processed by: cddbd v1.4PL0 Copyright (c) Steve Scherf et al.
# Submitted via: audiograbber 1.80.04
#
DISCID=dc0ea40f
DTITLE=Владимир Шандриков - "Где мои берега"
DYEAR=2003
DGENRE=Chanson
TTITLE0=Поговорим за жизнь
TTITLE1=Исповедь одной ночи
TTITLE2=Про подземную вселенную
TTITLE3=Про русского Ивана
TTITLE4=Кузькина любовь
TTITLE5=День строителя
TTITLE6=Один за всех
TTITLE7=Показания невиновного
TTITLE8=Неумышленное убийство
TTITLE9=Крестины
TTITLE10=Стена на Тарской
TTITLE11=Всё потом
TTITLE12="832"
TTITLE13=Всё ещё впереди
TTITLE14=Возвращение
EXTD=В.Шандриков - вокал, гитара.\nАнсамбль"Черноморская чайка" п/у В.Коцышевск
EXTD=ого.\nЗаписано в Одессе, в 1977-78г.\nИнформационная поддержка: www.blatat
EXTD=a.ru\n2003г."Фонд русский стиль".
EXTT0=
EXTT1=
EXTT2=
EXTT3=
EXTT4=
EXTT5=
EXTT6=
EXTT7=
EXTT8=
EXTT9=
EXTT10=
EXTT11=
EXTT12=
EXTT13=
EXTT14=
PLAYORDER=
